# xmcd
#
# Track frame offsets: 
#        150
#        10987
#        26895
#        47026
#        66566
#        85263
#        102035
#        117761
#        135149
#        153856
#        174974
#        190354
#        204241
#        228573
#        254806
#        269644
#        304350
#
# Disc length: 4440 seconds
#
# Revision: 1
# Processed by: cddbd v1.5.1PL0 Copyright (c) Steve Scherf et al.
# Submitted via: ExactAudioCopy v0.95a5
#
DISCID=ec115611
DTITLE=Various Artist - Pink.Champagne.[B]
DYEAR=2003
DGENRE=Jazz
TTITLE0=Peggy Lee - I Left My Heart In San Francisco
TTITLE1=Judy Garland - Over The Rainbow
TTITLE2=Melissa Errico - Never Saw Blue Like That
TTITLE3=Sanne Salomonsen - Smooth Operator
TTITLE4=Eden Atwood - Fool On The Hill
TTITLE5=Jane Duboc - If It's Magic
TTITLE6=Dinah Washington - These Foolish Things
TTITLE7=Jan Lundgren Trio featuring Stacey Kent - I Don't Stand The Gh
TTITLE7=ost Of A Chance
TTITLE8=Enzo Pietropaoli - Sorry Seems To Be The Hardest Word
TTITLE9=Fay Classen - What Are You Doing The Rest Of My Life
TTITLE10=Caecilie Norby - By The Time I Get To Phoenix
TTITLE11=Earthe Kitt - The Girl From Ipanema
TTITLE12=Silje Nergaard featuring Pat Metheny - Tell Me Where You're G
TTITLE12=oing
TTITLE13=Lena Horne - Imagination
TTITLE14=Liza Minnelli - Theme From New York New York
TTITLE15=Minnie Riperton featuring Jose Feliciano - Light My Fire
TTITLE16=DATA
EXTD=YEAR: 2003
EXTT0=
EXTT1=
EXTT2=
EXTT3=
EXTT4=
EXTT5=
EXTT6=
EXTT7=
EXTT8=
EXTT9=
EXTT10=
EXTT11=
EXTT12=
EXTT13=
EXTT14=
EXTT15=
EXTT16=
PLAYORDER=
